<!DOCTYPE svg PUBLIC "-//W3C//DTD SVG 20010904//EN" "http://www.w3.org/TR/2001/REC-SVG-20010904/DTD/svg10.dtd">
<svg version="1.0" xmlns="http://www.w3.org/2000/svg" width="399px" height="210px" viewBox="0 0 3990 2100" preserveAspectRatio="xMidYMid meet">
<g id="layer101" fill="#000000" stroke="none">
 <path d="M1648 1733 c-28 -33 -38 -61 -38 -111 0 -57 34 -117 65 -117 28 0 30 30 6 61 -12 15 -21 41 -21 59 0 18 9 44 21 59 35 44 4 91 -33 49z"/>
 <path d="M1957 1736 c-4 -9 5 -33 19 -54 29 -42 27 -79 -7 -126 -18 -24 -19 -30 -7 -42 21 -22 44 -8 68 40 26 55 25 101 -3 151 -24 42 -60 58 -70 31z"/>
 <path d="M2760 1718 c-42 -68 -35 -151 15 -198 23 -22 27 -22 41 -8 15 15 14 19 -7 47 -30 40 -30 91 0 132 12 16 20 37 17 45 -10 25 -45 16 -66 -18z m-3 -115 c-3 -10 -5 -2 -5 17 0 19 2 27 5 18 2 -10 2 -26 0 -35z"/>
 <path d="M3087 1744 c-12 -13 -8 -35 13 -61 26 -33 26 -83 -1 -117 -24 -31 -22 -61 6 -61 32 0 65 60 65 120 0 72 -53 148 -83 119z"/>
 <path d="M753 1733 c-9 -3 -13 -25 -13 -63 0 -53 -2 -58 -20 -53 -13 3 -22 -1 -26 -12 -8 -20 51 -85 78 -85 16 0 18 10 18 104 0 104 -5 120 -37 109z"/>
 <path d="M873 1733 c-9 -3 -13 -25 -13 -62 0 -57 -1 -58 -25 -53 -20 3 -25 0 -25 -16 0 -26 55 -82 81 -82 18 0 19 8 19 104 0 104 -5 120 -37 109z"/>
 <path d="M944 1726 c-3 -8 -2 -21 3 -28 4 -7 10 -49 13 -93 l5 -80 85 0 85 0 3 87 c3 110 -6 130 -56 126 -43 -3 -59 -35 -23 -45 33 -8 25 -23 -13 -23 -29 0 -34 4 -42 33 -11 35 -49 51 -60 23z m163 -149 c-2 -23 -3 -1 -3 48 0 50 1 68 3 42 2 -26 2 -67 0 -90z m-120 -9 c-2 -18 -4 -4 -4 32 0 36 2 50 4 33 2 -18 2 -48 0 -65z"/>
 <path d="M1391 1726 c-8 -9 -11 -47 -9 -107 l3 -94 91 -3 c106 -3 104 -6 104 111 0 101 -5 107 -99 107 -55 0 -82 -4 -90 -14z m157 -103 l-2 -88 -3 83 -4 82 -64 0 -64 0 -4 -82 -3 -83 -2 88 -2 87 75 0 75 0 -2 -87z m-28 42 c0 -11 -11 -15 -40 -15 -29 0 -40 4 -40 15 0 11 11 15 40 15 29 0 40 -4 40 -15z m0 -80 c0 -11 -11 -15 -40 -15 -29 0 -40 4 -40 15 0 11 11 15 40 15 29 0 40 -4 40 -15z"/>
 <path d="M2353 1733 c-26 -5 -53 -39 -53 -66 0 -28 30 -33 49 -8 12 16 25 22 44 19 42 -5 37 -23 -6 -26 -25 -2 -40 -9 -44 -20 -4 -9 -15 -23 -25 -30 -24 -17 -23 -28 7 -57 18 -19 35 -25 68 -25 62 0 74 13 81 96 5 60 3 75 -12 92 -17 21 -70 33 -109 25z m72 -113 c-3 -5 -21 -9 -38 -9 l-32 2 35 7 c19 4 36 8 38 9 2 0 0 -3 -3 -9z m-5 -41 c0 -14 -46 -11 -58 4 -9 10 -4 12 23 9 19 -2 35 -8 35 -13z"/>
 <path d="M2522 1732 c-9 -6 -12 -35 -10 -108 l3 -99 90 0 90 0 3 99 c2 73 -1 102 -10 108 -7 4 -44 8 -83 8 -38 0 -76 -4 -83 -8z m116 -29 c-21 -2 -55 -2 -75 0 -21 2 -4 4 37 4 41 0 58 -2 38 -4z m12 -38 c0 -11 -12 -15 -45 -15 -33 0 -45 4 -45 15 0 11 12 15 45 15 33 0 45 -4 45 -15z m0 -80 c0 -11 -12 -15 -45 -15 -33 0 -45 4 -45 15 0 11 12 15 45 15 33 0 45 -4 45 -15z"/>
 <path d="M2867 1733 c-4 -3 -7 -53 -7 -110 l0 -104 93 3 92 3 3 94 c2 60 -1 98 -9 107 -12 15 -159 21 -172 7z m151 -110 l-2 -88 -3 82 -4 82 -67 4 -67 3 73 2 72 2 -2 -87z m-28 42 c0 -11 -11 -15 -40 -15 -29 0 -40 4 -40 15 0 11 11 15 40 15 29 0 40 -4 40 -15z m0 -80 c0 -11 -11 -15 -40 -15 -29 0 -40 4 -40 15 0 11 11 15 40 15 29 0 40 -4 40 -15z"/>
 <path d="M1174 1715 c-9 -23 21 -61 71 -91 47 -27 54 -47 17 -52 -13 -2 -25 5 -32 18 -14 25 -53 24 -58 -2 -2 -10 8 -29 22 -43 37 -37 106 -36 136 2 32 41 15 92 -40 116 -24 11 -23 12 18 15 37 3 42 6 42 28 0 24 -2 24 -85 24 -67 0 -87 -3 -91 -15z"/>
 <path d="M1714 1715 c-10 -24 5 -35 47 -35 35 0 39 -3 39 -25 0 -19 -5 -25 -23 -25 -13 0 -32 -6 -42 -14 -16 -12 -17 -16 -6 -30 7 -9 26 -16 42 -16 23 0 28 -5 31 -27 2 -20 9 -29 26 -31 19 -3 22 1 22 27 0 27 3 30 37 33 65 5 56 57 -9 58 -23 0 -28 4 -28 25 0 23 4 25 44 25 44 0 58 11 48 38 -7 19 -221 17 -228 -3z m164 -12 l-48 -4 0 -50 0 -49 38 -2 37 -1 -37 -4 c-35 -4 -38 -7 -40 -36 l-1 -32 -4 33 c-4 30 -7 32 -46 34 l-42 1 43 4 42 4 0 49 0 49 -47 4 c-27 2 -3 3 52 3 55 0 79 -1 53 -3z"/>
 <path d="M2144 1646 c-12 -31 0 -51 31 -51 27 0 30 3 30 30 0 25 -4 30 -28 33 -17 2 -29 -2 -33 -12z"/>
 <path d="M405 786 c-14 -10 -25 -10 -46 -3 -55 21 -82 -43 -34 -81 23 -18 23 -20 6 -25 -22 -5 -46 -76 -36 -106 3 -10 18 -24 33 -31 l27 -13 -25 -6 c-16 -4 -26 -15 -28 -29 -6 -39 15 -52 79 -52 48 0 60 -4 69 -20 15 -28 70 -28 77 0 5 18 14 20 73 20 76 0 96 13 86 55 -4 17 -13 25 -29 25 -22 1 -22 1 -2 15 44 32 47 36 40 79 -4 22 -15 49 -26 58 -19 16 -19 17 2 31 14 11 20 23 17 43 -2 24 -8 30 -33 32 -23 2 -41 -6 -72 -32 l-41 -36 -6 35 c-4 19 -15 39 -26 45 -27 14 -83 12 -105 -4z m83 -38 c7 -7 12 -34 12 -60 l0 -48 69 0 c39 0 73 -4 76 -10 4 -7 -50 -10 -154 -10 -101 0 -161 4 -161 10 0 6 32 10 76 10 l75 0 -3 48 c-3 43 -5 47 -30 50 -16 2 -28 8 -28 13 0 13 54 11 68 -3z m-73 -68 c3 -5 2 -11 -2 -13 -10 -6 -93 70 -86 77 6 5 78 -47 88 -64z m195 20 c-24 -22 -47 -37 -50 -34 -7 8 70 74 84 74 6 -1 -9 -18 -34 -40z m-237 -139 c23 -16 53 -41 66 -55 31 -33 61 -33 91 -1 33 35 119 89 128 80 4 -4 1 -10 -6 -12 -24 -9 -106 -69 -110 -81 -2 -8 13 -12 53 -12 35 0 54 -4 50 -10 -3 -5 -42 -10 -86 -10 -78 0 -80 -1 -74 -22 l6 -23 -17 23 c-14 19 -26 22 -80 22 -36 0 -64 4 -64 10 0 6 23 10 51 10 63 0 61 12 -9 60 -28 19 -51 38 -52 43 0 12 10 8 53 -22z m202 -1 c-3 -5 -44 -10 -91 -10 -49 0 -84 4 -84 10 0 6 37 10 91 10 57 0 88 -4 84 -10z"/>
 <path d="M732 788 c-18 -18 -14 -46 8 -60 18 -12 20 -24 20 -135 0 -67 3 -128 6 -137 5 -12 20 -16 59 -16 45 0 55 -3 60 -20 9 -27 60 -27 77 0 10 15 24 20 59 20 26 0 51 6 56 13 6 6 13 60 16 119 4 85 2 110 -9 119 -12 10 -9 15 16 30 31 19 39 46 18 67 -18 18 -53 15 -109 -9 -34 -15 -53 -18 -61 -11 -34 27 -194 42 -216 20z m125 -39 c34 -6 60 -15 57 -20 -3 -6 -13 -8 -22 -5 -10 2 -34 7 -54 11 l-38 6 0 -61 0 -60 41 0 c36 0 46 5 85 49 42 47 131 97 157 88 7 -2 -12 -14 -42 -27 l-54 -24 23 -18 c13 -10 30 -23 39 -28 9 -5 13 -11 9 -15 -3 -4 -25 6 -48 21 l-42 28 -31 -34 -31 -35 72 -3 73 -3 -3 -77 -3 -77 -56 -3 c-48 -2 -58 -6 -64 -25 l-8 -22 -4 22 c-4 19 -12 22 -66 25 l-62 3 -3 138 c-2 113 -5 137 -17 137 -8 0 -15 5 -15 10 0 13 28 13 107 -1z m29 -49 c12 0 12 -4 2 -20 -19 -30 -48 -26 -48 6 0 20 4 25 16 20 9 -3 22 -6 30 -6z"/>
 <path d="M800 575 l0 -25 115 0 115 0 0 25 0 25 -115 0 -115 0 0 -25z"/>
 <path d="M800 505 l0 -25 115 0 115 0 0 25 0 25 -115 0 -115 0 0 -25z"/>
 <path d="M1172 788 c-15 -15 -16 -171 -2 -199 6 -10 17 -19 25 -19 10 0 15 -10 15 -29 0 -25 -4 -30 -27 -33 -20 -2 -29 -9 -31 -26 -6 -40 14 -52 88 -52 51 0 69 -4 74 -15 7 -19 62 -20 73 0 6 10 30 15 82 17 57 2 76 7 85 21 15 24 -3 51 -38 55 -21 3 -26 8 -26 33 0 22 5 29 20 29 31 0 42 35 38 117 -3 64 -7 78 -27 94 -31 25 -95 25 -120 0 -14 -14 -37 -20 -85 -23 -61 -3 -66 -1 -71 20 -4 16 -13 22 -33 22 -15 0 -33 -5 -40 -12z m38 -103 l0 -75 140 0 141 0 -3 63 c-3 62 -3 62 -35 65 -40 4 -44 22 -5 22 47 0 56 -13 60 -89 l4 -71 -161 0 -161 0 0 80 c0 47 4 80 10 80 6 0 10 -32 10 -75z m220 -5 l0 -40 -85 0 -85 0 0 40 0 40 85 0 85 0 0 -40z m20 -145 l0 -35 -105 0 -105 0 0 35 0 35 105 0 105 0 0 -35z m-12 -72 c-80 -4 -87 -5 -91 -26 l-4 -22 -8 22 c-6 20 -15 23 -84 26 -42 1 3 3 99 3 96 0 136 -2 88 -3z"/>
 <path d="M1282 678 c3 -21 8 -23 68 -23 60 0 65 2 68 23 3 21 0 22 -68 22 -68 0 -71 -1 -68 -22z"/>
 <path d="M1260 535 c0 -12 16 -15 85 -15 69 0 85 3 85 15 0 12 -16 15 -85 15 -69 0 -85 -3 -85 -15z"/>
 <path d="M1765 790 c-3 -5 -15 -10 -26 -10 -21 0 -99 -45 -99 -58 0 -4 -13 -13 -30 -19 -36 -14 -42 -55 -10 -75 16 -10 20 -24 20 -69 0 -41 -4 -58 -15 -63 -18 -7 -20 -47 -3 -64 7 -7 40 -12 80 -12 39 0 68 -4 68 -10 0 -13 57 -13 65 0 3 6 37 10 74 10 39 0 72 5 79 12 17 17 15 57 -3 64 -11 5 -15 22 -15 65 0 44 4 61 15 65 8 4 15 19 15 35 0 30 -23 49 -59 49 -16 0 -21 6 -21 25 0 40 -33 65 -84 65 -25 0 -48 -4 -51 -10z m83 -42 c7 -7 12 -29 12 -50 0 -38 0 -38 43 -40 l42 -1 -42 -4 c-35 -3 -43 -8 -43 -24 0 -14 7 -19 25 -19 24 0 25 -3 25 -55 l0 -54 -62 -3 c-48 -2 -63 -7 -63 -18 0 -12 18 -16 80 -21 l80 -5 -82 -2 c-71 -2 -83 -5 -84 -19 -1 -17 -2 -17 -6 0 -4 14 -17 17 -81 19 l-77 2 75 5 c57 5 75 10 75 21 0 11 -15 16 -62 18 l-63 3 0 54 0 55 100 0 c93 0 100 1 100 20 0 19 -7 20 -122 22 l-123 2 123 3 122 4 0 39 c0 38 -2 40 -30 40 -16 0 -30 5 -30 10 0 14 54 12 68 -2z m-133 -33 c-26 -22 -55 -33 -55 -21 0 7 64 46 75 45 6 0 -3 -11 -20 -24z"/>
 <path d="M1660 580 c0 -18 7 -20 55 -20 48 0 55 2 55 20 0 18 -7 20 -55 20 -48 0 -55 -2 -55 -20z"/>
 <path d="M1780 580 c0 -18 7 -20 55 -20 48 0 55 2 55 20 0 18 -7 20 -55 20 -48 0 -55 -2 -55 -20z"/>
 <path d="M1660 531 c0 -19 6 -21 56 -21 47 0 55 3 52 18 -2 13 -15 18 -56 20 -47 3 -52 1 -52 -17z"/>
 <path d="M1787 543 c-4 -3 -7 -12 -7 -20 0 -9 16 -13 55 -13 48 0 55 2 55 20 0 17 -7 20 -48 20 -27 0 -52 -3 -55 -7z"/>
 <path d="M2028 789 c-29 -16 -22 -57 13 -78 26 -16 28 -19 11 -23 -23 -6 -40 -91 -23 -112 8 -10 7 -17 -4 -26 -25 -21 -17 -43 40 -104 53 -58 55 -59 82 -47 17 8 64 13 121 12 136 -2 154 15 108 95 l-23 40 29 17 c35 20 45 44 30 68 -7 10 -12 26 -12 34 0 9 -9 19 -21 23 -20 8 -20 8 5 21 33 18 40 39 21 67 -21 32 -34 30 -94 -10 -44 -30 -51 -32 -51 -16 0 10 -7 26 -16 34 -21 21 -97 21 -118 0 -14 -14 -18 -14 -38 0 -26 18 -36 19 -60 5z m97 -89 c10 -11 15 -20 11 -20 -12 0 -96 63 -96 71 0 11 63 -27 85 -51z m93 3 l3 -53 70 0 c39 0 69 -4 69 -10 0 -6 -56 -10 -149 -10 -89 0 -152 4 -156 10 -4 6 22 10 69 10 l76 0 0 45 c0 43 -1 45 -30 45 -16 0 -30 5 -30 11 0 6 16 9 38 7 l37 -3 3 -52z m152 47 c0 -11 -90 -74 -97 -67 -4 4 84 76 95 77 1 0 2 -4 2 -10z m-261 -169 c18 -12 25 -13 29 -3 5 15 142 17 142 2 0 -6 -30 -10 -70 -10 -38 0 -70 -3 -70 -7 1 -5 16 -25 33 -45 l33 -37 36 39 c38 40 125 96 134 87 3 -3 -13 -17 -35 -31 -23 -15 -41 -29 -41 -32 0 -3 8 -18 19 -32 10 -15 23 -37 30 -49 12 -23 11 -23 -49 -23 -38 0 -59 4 -55 10 3 6 24 10 46 10 43 0 43 5 6 55 -15 20 -16 20 -42 -5 -15 -14 -31 -35 -36 -47 -7 -19 -16 -23 -48 -23 -22 0 -41 -5 -44 -12 -3 -9 -11 -5 -22 10 -9 12 -28 34 -43 47 -14 13 -24 27 -21 29 3 3 20 -8 38 -24 24 -23 42 -30 71 -30 39 0 39 1 28 25 -12 26 -23 31 -33 15 -3 -5 -14 -10 -23 -10 -14 1 -14 2 3 12 29 16 29 16 15 33 -12 14 -15 14 -36 0 -14 -9 -24 -11 -24 -5 0 6 7 13 15 16 24 10 17 22 -20 34 -19 6 -33 16 -30 20 6 10 29 3 64 -19z"/>
 <path d="M2870 771 c-20 -11 -44 -36 -58 -62 -20 -37 -23 -55 -20 -121 3 -81 17 -112 69 -150 67 -50 171 -26 216 49 55 94 26 241 -57 285 -44 23 -106 23 -150 -1z m120 -34 c13 -7 35 -28 48 -47 21 -31 23 -44 20 -108 -3 -71 -5 -76 -41 -108 -27 -25 -46 -34 -72 -34 -83 0 -129 55 -129 155 -1 117 85 187 174 142z"/>
 <path d="M2881 714 c-45 -32 -64 -118 -40 -181 19 -51 48 -73 95 -73 54 0 92 30 104 85 16 67 -9 153 -49 175 -29 15 -84 12 -110 -6z m116 -36 c26 -29 25 -128 -1 -157 -41 -45 -109 -16 -122 54 -18 97 65 166 123 103z"/>
 <path d="M3232 778 c-8 -8 -12 -47 -12 -110 0 -54 -2 -98 -5 -98 -3 0 -14 6 -25 12 -25 16 -54 1 -58 -31 -5 -30 110 -143 141 -139 22 3 22 7 25 182 3 185 1 195 -38 196 -9 0 -21 -5 -28 -12z m28 -185 l0 -156 -53 49 c-59 55 -66 81 -9 34 20 -16 40 -30 44 -30 5 0 8 59 8 130 0 72 2 130 5 130 3 0 5 -70 5 -157z"/>
 <path d="M3415 775 c-42 -22 -65 -52 -65 -87 0 -21 6 -31 20 -35 19 -5 19 -6 -2 -34 -28 -38 -29 -110 -1 -147 61 -83 212 -79 265 6 19 31 23 51 23 117 0 91 -16 130 -67 166 -41 30 -130 37 -173 14z m132 -45 c44 -26 63 -58 70 -119 12 -102 -37 -171 -122 -171 -106 0 -162 94 -97 160 43 43 91 48 153 17 l51 -25 -5 35 c-4 19 -13 46 -22 60 -32 49 -115 58 -163 18 -36 -30 -46 -32 -32 -5 26 48 112 64 167 30z m-8 -44 c7 -8 -7 -11 -49 -11 -57 -1 -68 9 -27 24 25 9 63 3 76 -13z"/>
 <path d="M3433 610 c-47 -19 -57 -87 -18 -125 35 -36 115 -36 150 0 26 25 32 63 15 95 -18 33 -98 50 -147 30z m118 -41 c18 -18 19 -23 6 -42 -30 -46 -127 -28 -127 23 0 42 85 55 121 19z"/>
 <path d="M2444 755 c-10 -39 24 -85 96 -132 109 -72 111 -73 108 -96 -2 -16 -11 -23 -32 -25 -49 -6 -76 6 -88 38 -8 24 -16 30 -38 30 -44 0 -57 -23 -39 -73 25 -72 125 -106 214 -72 57 21 79 59 72 122 -6 54 -25 76 -102 117 l-60 31 82 3 c70 2 84 6 93 22 8 14 7 26 0 40 -10 19 -21 20 -155 20 l-145 0 -6 -25z m266 -25 c0 -6 -42 -10 -105 -10 -58 0 -105 -4 -105 -9 0 -14 58 -60 110 -86 92 -46 116 -112 59 -159 -51 -43 -160 -30 -189 23 -13 25 -13 41 0 41 6 0 10 -5 10 -12 0 -6 10 -22 22 -35 17 -18 32 -23 73 -23 63 0 95 20 95 61 0 37 -30 69 -97 103 -47 23 -113 86 -113 106 0 6 50 10 120 10 73 0 120 -4 120 -10z"/>
 </g>

</svg>